# xmcd
#
# Track frame offsets: 
#        150
#        12216
#        25062
#        36208
#        47187
#        61147
#        72822
#        84442
#        95727
#        107793
#        121503
#        133736
#
# Disc length: 1954 seconds
#
# Revision: 0
# Processed by: cddbd v1.5.2PL0 Copyright (c) Steve Scherf et al.
# Submitted via: ExactAudioCopy v0.95b3
#
DISCID=9607a00c
DTITLE=Buddy Johnson  - RocknRoll Stage Show 1956  FLAC
DYEAR=1900
DGENRE=
TTITLE0=I Don't Want Nobody (To Have My Love But You)
TTITLE1=Doot Doot Dow
TTITLE2=Bring It Home To Me
TTITLE3=You Got It Made
TTITLE4=A Pretty Girl (A Cadillac And Some Money)
TTITLE5=Any Day Now
TTITLE6=It's Obdacious
TTITLE7=Crazy 'Bout A Saxophone
TTITLE8=(Gotta Go) Upside Your Head
TTITLE9=Ain't But One
TTITLE10=A-12
TTITLE11=I'm Just Your Fool
EXTD=
EXTT0=
EXTT1=
EXTT2=
EXTT3=
EXTT4=
EXTT5=
EXTT6=
EXTT7=
EXTT8=
EXTT9=
EXTT10=
EXTT11=
PLAYORDER=
